<?xml version="1.0" encoding="UTF-8"?>
<!DOCTYPE svg PUBLIC "-//W3C//DTD SVG 1.1//EN" "http://www.w3.org/Graphics/SVG/1.1/DTD/svg11.dtd">
<svg xmlns="http://www.w3.org/2000/svg" xmlns:xlink="http://www.w3.org/1999/xlink" version="1.1" width="100%" height="100%" viewBox="-0.5 -0.5 1364 833" animation="{&quot;scriptArr&quot;:[],&quot;cellIdArr&quot;:[]}" style="background-color: rgb(255, 255, 255);"><defs><style type="text/css">ul { margin-top: 0px; margin-bottom: 10px; }&#xa;ol { margin-top: 0px; margin-bottom: 10px; }&#xa;.h1, .h2, .h3, .h4, .h5, .h6, h1, h2, h3, h4, h5, h6 { margin-bottom: .5rem; font-weight: 500; line-height: 1.2; }&#xa;h1, h2, h3, h4, h5, h6 { margin-top: 0; margin-bottom: .5rem; }&#xa;.h1, h1 { font-size: 2.5rem; }&#xa;h2 { font-size: 1.5em; font-weight: bold; }&#xa;h3 { font-size: 1.17em; font-weight: bold; }&#xa;.h4, h4 { font-size: 1.5rem; }&#xa;.h5, h5 { font-size: 1.25rem; }&#xa;.h6, h6 { font-size: 1rem; }&#xa;p { margin-top: 0; margin-bottom: 1rem; }&#xa;a { color: #007bff; }&#xa;ul { margin-top: 0px; margin-bottom: 10px; }&#xa;ol { margin-top: 0px; margin-bottom: 10px; }&#xa;.h1, .h2, .h3, .h4, .h5, .h6, h1, h2, h3, h4, h5, h6 { margin-bottom: .5rem; font-weight: 500; line-height: 1.2; }&#xa;h1, h2, h3, h4, h5, h6 { margin-top: 0; margin-bottom: .5rem; }&#xa;.h1, h1 { font-size: 2.5rem; }&#xa;h2 { font-size: 1.5em; font-weight: bold; }&#xa;h3 { font-size: 1.17em; font-weight: bold; }&#xa;.h4, h4 { font-size: 1.5rem; }&#xa;.h5, h5 { font-size: 1.25rem; }&#xa;.h6, h6 { font-size: 1rem; }&#xa;p { margin-top: 0; margin-bottom: 1rem; }&#xa;a { color: #007bff; }&#xa;ul { margin-top: 0px; margin-bottom: 10px; }&#xa;ol { margin-top: 0px; margin-bottom: 10px; }&#xa;.h1, .h2, .h3, .h4, .h5, .h6, h1, h2, h3, h4, h5, h6 { margin-bottom: .5rem; font-weight: 500; line-height: 1.2; }&#xa;h1, h2, h3, h4, h5, h6 { margin-top: 0; margin-bottom: .5rem; }&#xa;.h1, h1 { font-size: 2.5rem; }&#xa;h2 { font-size: 1.5em; font-weight: bold; }&#xa;h3 { font-size: 1.17em; font-weight: bold; }&#xa;.h4, h4 { font-size: 1.5rem; }&#xa;.h5, h5 { font-size: 1.25rem; }&#xa;.h6, h6 { font-size: 1rem; }&#xa;p { margin-top: 0; margin-bottom: 1rem; }&#xa;a { color: #007bff; }&#xa;</style><style type="text/css">@import url(https://fonts.googleapis.com/css2?family=Open+Sans:ital,wght@0,400;0,700;1,400;1,700&amp;display=swap);&#xa;@import url(https://fonts.googleapis.com/css2?family=Open+Sans:ital,wght@0,400;0,700;1,400;1,700&amp;display=swap);&#xa;</style></defs><g><g shape-node=""><path cell-id="2" d="M 0 102 L 0 2 L 100 2 L 100 12 L 10 12 L 10 102 Z" fill="#000000" stroke="#000000" stroke-miterlimit="10" pointer-events="all"/></g><g shape-node=""><path cell-id="3" d="M 975 389 L 975 289 L 1651 289 L 1651 299 L 985 299 L 985 389 Z" fill="#000000" stroke="#000000" stroke-miterlimit="10" transform="rotate(90,1313,339)" pointer-events="all"/></g><g shape-node=""><path cell-id="4" d="M 992 758 L 992 579 L 1363 579 L 1363 589 L 1002 589 L 1002 758 Z" fill="#000000" stroke="#000000" stroke-miterlimit="10" transform="rotate(180,1177.5,668.5)" pointer-events="all"/></g><g shape-node=""><path cell-id="5" d="M 81.5 840.5 L 81.5 9.5 L 749.5 9.5 L 749.5 19.5 L 91.5 19.5 L 91.5 840.5 Z" fill="#000000" stroke="#000000" stroke-miterlimit="10" transform="rotate(270,415.5,425)" pointer-events="all"/></g><g shape-node=""><path cell-id="23" d="M 356.54 170.62 L 359.45 194.46 C 360 197.97 358.48 201.47 355.57 203.4 C 345.61 205 335.46 205 325.5 203.4 C 322.59 201.47 321.06 197.97 321.62 194.46 L 324.53 170.62 C 325.09 167.98 327.86 165.95 331.32 165.65 L 349.75 165.65 C 353.2 165.95 355.98 167.98 356.54 170.62 Z M 330.52 165.65 L 325.54 159.36 M 336.06 165.65 L 334.4 158.46 M 342.71 165.65 L 344.92 158.46 M 348.24 165.65 L 353.78 159.36 M 355.44 159.69 C 345.19 158.06 334.69 158.06 324.43 159.69 L 320 155.72 C 333.12 153.01 346.76 153.01 359.87 155.72 Z" fill="#ffffff" stroke="#000000" stroke-linejoin="round" stroke-miterlimit="10" pointer-events="none"/></g><g shape-node=""><path cell-id="24" d="M 356.54 238.62 L 359.45 262.46 C 360 265.97 358.48 269.47 355.57 271.4 C 345.61 273 335.46 273 325.5 271.4 C 322.59 269.47 321.06 265.97 321.62 262.46 L 324.53 238.62 C 325.09 235.98 327.86 233.95 331.32 233.65 L 349.75 233.65 C 353.2 233.95 355.98 235.98 356.54 238.62 Z M 330.52 233.65 L 325.54 227.36 M 336.06 233.65 L 334.4 226.46 M 342.71 233.65 L 344.92 226.46 M 348.24 233.65 L 353.78 227.36 M 355.44 227.69 C 345.19 226.06 334.69 226.06 324.43 227.69 L 320 223.72 C 333.12 221.01 346.76 221.01 359.87 223.72 Z" fill="#ffffff" stroke="#000000" stroke-linejoin="round" stroke-miterlimit="10" transform="rotate(180,340,247)" pointer-events="none"/></g><g shape-node=""><rect cell-id="25" x="300" y="171" width="80" height="80" fill="#ffffff" stroke="#000000" pointer-events="none"/></g><g shape-node=""><path cell-id="40" d="M 122.54 458.62 L 125.45 482.46 C 126 485.97 124.48 489.47 121.57 491.4 C 111.61 493 101.46 493 91.5 491.4 C 88.59 489.47 87.06 485.97 87.62 482.46 L 90.53 458.62 C 91.09 455.98 93.86 453.95 97.32 453.65 L 115.75 453.65 C 119.2 453.95 121.98 455.98 122.54 458.62 Z M 96.52 453.65 L 91.54 447.36 M 102.06 453.65 L 100.4 446.46 M 108.71 453.65 L 110.92 446.46 M 114.24 453.65 L 119.78 447.36 M 121.44 447.69 C 111.19 446.06 100.69 446.06 90.43 447.69 L 86 443.72 C 99.12 441.01 112.76 441.01 125.87 443.72 Z" fill="#ffffff" stroke="#000000" stroke-linejoin="round" stroke-miterlimit="10" transform="rotate(-45,106,467)" pointer-events="none"/></g><g shape-node=""><path cell-id="41" d="M 184.54 520.62 L 187.45 544.46 C 188 547.97 186.48 551.47 183.57 553.4 C 173.61 555 163.46 555 153.5 553.4 C 150.59 551.47 149.06 547.97 149.62 544.46 L 152.53 520.62 C 153.09 517.98 155.86 515.95 159.32 515.65 L 177.75 515.65 C 181.2 515.95 183.98 517.98 184.54 520.62 Z M 158.52 515.65 L 153.54 509.36 M 164.06 515.65 L 162.4 508.46 M 170.71 515.65 L 172.92 508.46 M 176.24 515.65 L 181.78 509.36 M 183.44 509.69 C 173.19 508.06 162.69 508.06 152.43 509.69 L 148 505.72 C 161.12 503.01 174.76 503.01 187.87 505.72 Z" fill="#ffffff" stroke="#000000" stroke-linejoin="round" stroke-miterlimit="10" transform="rotate(135,168,529)" pointer-events="none"/></g><g shape-node=""><path cell-id="42" d="M 122.54 520.62 L 125.45 544.46 C 126 547.97 124.48 551.47 121.57 553.4 C 111.61 555 101.46 555 91.5 553.4 C 88.59 551.47 87.06 547.97 87.62 544.46 L 90.53 520.62 C 91.09 517.98 93.86 515.95 97.32 515.65 L 115.75 515.65 C 119.2 515.95 121.98 517.98 122.54 520.62 Z M 96.52 515.65 L 91.54 509.36 M 102.06 515.65 L 100.4 508.46 M 108.71 515.65 L 110.92 508.46 M 114.24 515.65 L 119.78 509.36 M 121.44 509.69 C 111.19 508.06 100.69 508.06 90.43 509.69 L 86 505.72 C 99.12 503.01 112.76 503.01 125.87 505.72 Z" fill="#ffffff" stroke="#000000" stroke-linejoin="round" stroke-miterlimit="10" transform="rotate(225,106,529)" pointer-events="none"/></g><g shape-node=""><path cell-id="43" d="M 184.54 458.62 L 187.45 482.46 C 188 485.97 186.48 489.47 183.57 491.4 C 173.61 493 163.46 493 153.5 491.4 C 150.59 489.47 149.06 485.97 149.62 482.46 L 152.53 458.62 C 153.09 455.98 155.86 453.95 159.32 453.65 L 177.75 453.65 C 181.2 453.95 183.98 455.98 184.54 458.62 Z M 158.52 453.65 L 153.54 447.36 M 164.06 453.65 L 162.4 446.46 M 170.71 453.65 L 172.92 446.46 M 176.24 453.65 L 181.78 447.36 M 183.44 447.69 C 173.19 446.06 162.69 446.06 152.43 447.69 L 148 443.72 C 161.12 441.01 174.76 441.01 187.87 443.72 Z" fill="#ffffff" stroke="#000000" stroke-linejoin="round" stroke-miterlimit="10" transform="rotate(45,168,467)" pointer-events="none"/></g><g shape-node=""><rect cell-id="44" x="87" y="448" width="100" height="100" fill="#ffffff" stroke="#000000" transform="rotate(-45,137,498)" pointer-events="none"/></g><g shape-node=""><path cell-id="6" d="M 1003 100.5 L 1003 0.5 L 1287 0.5 L 1287 10.5 L 1013 10.5 L 1013 100.5 Z" fill="#000000" stroke="#000000" stroke-miterlimit="10" pointer-events="none"/></g><g shape-node=""><path cell-id="15" d="M 210.04 167.12 L 212.95 190.96 C 213.5 194.47 211.98 197.97 209.07 199.9 C 199.11 201.5 188.96 201.5 179 199.9 C 176.09 197.97 174.56 194.47 175.12 190.96 L 178.03 167.12 C 178.59 164.48 181.36 162.45 184.82 162.15 L 203.25 162.15 C 206.7 162.45 209.48 164.48 210.04 167.12 Z M 184.02 162.15 L 179.04 155.86 M 189.56 162.15 L 187.9 154.96 M 196.21 162.15 L 198.42 154.96 M 201.74 162.15 L 207.28 155.86 M 208.94 156.19 C 198.69 154.56 188.19 154.56 177.93 156.19 L 173.5 152.22 C 186.62 149.51 200.26 149.51 213.37 152.22 Z" fill="#ffffff" stroke="#000000" stroke-linejoin="round" stroke-miterlimit="10" transform="rotate(90,193.5,175.5)" pointer-events="none"/></g><g shape-node=""><path cell-id="16" d="M 122.04 196.12 L 124.95 219.96 C 125.5 223.47 123.98 226.97 121.07 228.9 C 111.11 230.5 100.96 230.5 91 228.9 C 88.09 226.97 86.56 223.47 87.12 219.96 L 90.03 196.12 C 90.59 193.48 93.36 191.45 96.82 191.15 L 115.25 191.15 C 118.7 191.45 121.48 193.48 122.04 196.12 Z M 96.02 191.15 L 91.04 184.86 M 101.56 191.15 L 99.9 183.96 M 108.21 191.15 L 110.42 183.96 M 113.74 191.15 L 119.28 184.86 M 120.94 185.19 C 110.69 183.56 100.19 183.56 89.93 185.19 L 85.5 181.22 C 98.62 178.51 112.26 178.51 125.37 181.22 Z" fill="#ffffff" stroke="#000000" stroke-linejoin="round" stroke-miterlimit="10" transform="rotate(270,105.5,204.5)" pointer-events="none"/></g><g shape-node=""><path cell-id="17" d="M 166.04 152.12 L 168.95 175.96 C 169.5 179.47 167.98 182.97 165.07 184.9 C 155.11 186.5 144.96 186.5 135 184.9 C 132.09 182.97 130.56 179.47 131.12 175.96 L 134.03 152.12 C 134.59 149.48 137.36 147.45 140.82 147.15 L 159.25 147.15 C 162.7 147.45 165.48 149.48 166.04 152.12 Z M 140.02 147.15 L 135.04 140.86 M 145.56 147.15 L 143.9 139.96 M 152.21 147.15 L 154.42 139.96 M 157.74 147.15 L 163.28 140.86 M 164.94 141.19 C 154.69 139.56 144.19 139.56 133.93 141.19 L 129.5 137.22 C 142.62 134.51 156.26 134.51 169.37 137.22 Z" fill="#ffffff" stroke="#000000" stroke-linejoin="round" stroke-miterlimit="10" transform="rotate(360,149.5,160.5)" pointer-events="none"/></g><g shape-node=""><path cell-id="18" d="M 166.04 300.12 L 168.95 323.96 C 169.5 327.47 167.98 330.97 165.07 332.9 C 155.11 334.5 144.96 334.5 135 332.9 C 132.09 330.97 130.56 327.47 131.12 323.96 L 134.03 300.12 C 134.59 297.48 137.36 295.45 140.82 295.15 L 159.25 295.15 C 162.7 295.45 165.48 297.48 166.04 300.12 Z M 140.02 295.15 L 135.04 288.86 M 145.56 295.15 L 143.9 287.96 M 152.21 295.15 L 154.42 287.96 M 157.74 295.15 L 163.28 288.86 M 164.94 289.19 C 154.69 287.56 144.19 287.56 133.93 289.19 L 129.5 285.22 C 142.62 282.51 156.26 282.51 169.37 285.22 Z" fill="#ffffff" stroke="#000000" stroke-linejoin="round" stroke-miterlimit="10" transform="rotate(180,149.5,308.5)" pointer-events="none"/></g><g shape-node=""><path cell-id="19" d="M 210.04 287.12 L 212.95 310.96 C 213.5 314.47 211.98 317.97 209.07 319.9 C 199.11 321.5 188.96 321.5 179 319.9 C 176.09 317.97 174.56 314.47 175.12 310.96 L 178.03 287.12 C 178.59 284.48 181.36 282.45 184.82 282.15 L 203.25 282.15 C 206.7 282.45 209.48 284.48 210.04 287.12 Z M 184.02 282.15 L 179.04 275.86 M 189.56 282.15 L 187.9 274.96 M 196.21 282.15 L 198.42 274.96 M 201.74 282.15 L 207.28 275.86 M 208.94 276.19 C 198.69 274.56 188.19 274.56 177.93 276.19 L 173.5 272.22 C 186.62 269.51 200.26 269.51 213.37 272.22 Z" fill="#ffffff" stroke="#000000" stroke-linejoin="round" stroke-miterlimit="10" transform="rotate(90,193.5,295.5)" pointer-events="none"/></g><g shape-node=""><path cell-id="20" d="M 122.04 256.12 L 124.95 279.96 C 125.5 283.47 123.98 286.97 121.07 288.9 C 111.11 290.5 100.96 290.5 91 288.9 C 88.09 286.97 86.56 283.47 87.12 279.96 L 90.03 256.12 C 90.59 253.48 93.36 251.45 96.82 251.15 L 115.25 251.15 C 118.7 251.45 121.48 253.48 122.04 256.12 Z M 96.02 251.15 L 91.04 244.86 M 101.56 251.15 L 99.9 243.96 M 108.21 251.15 L 110.42 243.96 M 113.74 251.15 L 119.28 244.86 M 120.94 245.19 C 110.69 243.56 100.19 243.56 89.93 245.19 L 85.5 241.22 C 98.62 238.51 112.26 238.51 125.37 241.22 Z" fill="#ffffff" stroke="#000000" stroke-linejoin="round" stroke-miterlimit="10" transform="rotate(270,105.5,264.5)" pointer-events="none"/></g><g shape-node=""><rect cell-id="21" x="79.5" y="180.5" width="160" height="120" fill="#ffffff" stroke="#000000" transform="rotate(90,159.5,240.5)" pointer-events="none"/></g><g shape-node=""><path cell-id="4IWlqZDekBvQUwWAgDBS-158" d="M 253.54 289.62 L 256.45 313.46 C 257 316.97 255.48 320.47 252.57 322.4 C 242.61 324 232.46 324 222.5 322.4 C 219.59 320.47 218.06 316.97 218.62 313.46 L 221.53 289.62 C 222.09 286.98 224.86 284.95 228.32 284.65 L 246.75 284.65 C 250.2 284.95 252.98 286.98 253.54 289.62 Z M 227.52 284.65 L 222.54 278.36 M 233.06 284.65 L 231.4 277.46 M 239.71 284.65 L 241.92 277.46 M 245.24 284.65 L 250.78 278.36 M 252.44 278.69 C 242.19 277.06 231.69 277.06 221.43 278.69 L 217 274.72 C 230.12 272.01 243.76 272.01 256.87 274.72 Z" fill="#ffffff" stroke="#000000" stroke-linejoin="round" stroke-miterlimit="10" transform="rotate(90,237,298)" pointer-events="none"/></g><g shape-node=""><path cell-id="4IWlqZDekBvQUwWAgDBS-157" d="M 243.54 215.62 L 246.45 239.46 C 247 242.97 245.48 246.47 242.57 248.4 C 232.61 250 222.46 250 212.5 248.4 C 209.59 246.47 208.06 242.97 208.62 239.46 L 211.53 215.62 C 212.09 212.98 214.86 210.95 218.32 210.65 L 236.75 210.65 C 240.2 210.95 242.98 212.98 243.54 215.62 Z M 217.52 210.65 L 212.54 204.36 M 223.06 210.65 L 221.4 203.46 M 229.71 210.65 L 231.92 203.46 M 235.24 210.65 L 240.78 204.36 M 242.44 204.69 C 232.19 203.06 221.69 203.06 211.43 204.69 L 207 200.72 C 220.12 198.01 233.76 198.01 246.87 200.72 Z" fill="#ffffff" stroke="#000000" stroke-linejoin="round" stroke-miterlimit="10" transform="rotate(90,227,224)" pointer-events="none"/></g><g shape-node=""><path cell-id="27" d="M 295.5 297.5 L 295.5 -193.5 L 395.5 -193.5 L 395.5 -183.5 L 305.5 -183.5 L 305.5 297.5 Z" fill="#000000" stroke="#000000" stroke-miterlimit="10" transform="rotate(270,345.5,52)" pointer-events="none"/></g><g shape-node=""><path cell-id="30" d="M 591 102 L 591 2 L 691 2 L 691 12 L 601 12 L 601 102 Z" fill="#000000" stroke="#000000" stroke-miterlimit="10" transform="rotate(180,641,52)" pointer-events="none"/></g><g shape-node=""><path cell-id="46" d="M 84.92 60.74 C 81.61 58.76 75.79 57.8 70.21 57.32 C 79.51 53.12 89.9 45.67 89.9 45.67 C 83.3 42.79 74.83 45.67 68.29 49.04 C 69.91 45.01 70.81 40.93 71.11 37.75 C 71.41 34.45 70.33 21 69.37 24.66 C 67.99 29.95 64.69 36.61 61.62 42.19 C 57.3 30.79 49.92 22.08 49.92 23.58 C 49.92 25.56 53.52 45.07 55.02 53.36 C 54.84 53.66 54.72 53.78 54.72 53.78 C 54.72 53.78 54.72 53.84 54.66 53.96 C 46.92 30.55 31.55 24.72 31.55 24.72 C 37.61 30.13 43.19 45.01 46.67 55.88 L 20.5 40.21 C 20.5 40.21 26.86 50.12 35.87 57.08 C 29.33 57.56 22.9 58.76 20.5 61.46 C 20.5 61.46 32.63 67.35 44.15 63.26 C 38.81 68.61 33.35 76.23 34.79 84.1 C 34.79 84.1 44.93 77.01 51.12 68.97 C 48.66 77.13 47.22 87.16 53.1 91 C 53.1 91 57.66 80.85 58.56 71.25 C 64.81 77.61 74.71 80.07 74.71 80.07 C 73.15 75.87 67.99 69.93 63.24 65.07 C 73.63 68.43 90.5 64.1 84.92 60.74 Z" fill="#a5c882" stroke="none" pointer-events="none"/></g><g shape-node=""><path cell-id="48" d="M 325.54 463.62 L 328.45 487.46 C 329 490.97 327.48 494.47 324.57 496.4 C 314.61 498 304.46 498 294.5 496.4 C 291.59 494.47 290.06 490.97 290.62 487.46 L 293.53 463.62 C 294.09 460.98 296.86 458.95 300.32 458.65 L 318.75 458.65 C 322.2 458.95 324.98 460.98 325.54 463.62 Z M 299.52 458.65 L 294.54 452.36 M 305.06 458.65 L 303.4 451.46 M 311.71 458.65 L 313.92 451.46 M 317.24 458.65 L 322.78 452.36 M 324.44 452.69 C 314.19 451.06 303.69 451.06 293.43 452.69 L 289 448.72 C 302.12 446.01 315.76 446.01 328.87 448.72 Z" fill="#ffffff" stroke="#000000" stroke-linejoin="round" stroke-miterlimit="10" transform="rotate(-45,309,472)" pointer-events="none"/></g><g shape-node=""><path cell-id="49" d="M 387.54 525.62 L 390.45 549.46 C 391 552.97 389.48 556.47 386.57 558.4 C 376.61 560 366.46 560 356.5 558.4 C 353.59 556.47 352.06 552.97 352.62 549.46 L 355.53 525.62 C 356.09 522.98 358.86 520.95 362.32 520.65 L 380.75 520.65 C 384.2 520.95 386.98 522.98 387.54 525.62 Z M 361.52 520.65 L 356.54 514.36 M 367.06 520.65 L 365.4 513.46 M 373.71 520.65 L 375.92 513.46 M 379.24 520.65 L 384.78 514.36 M 386.44 514.69 C 376.19 513.06 365.69 513.06 355.43 514.69 L 351 510.72 C 364.12 508.01 377.76 508.01 390.87 510.72 Z" fill="#ffffff" stroke="#000000" stroke-linejoin="round" stroke-miterlimit="10" transform="rotate(135,371,534)" pointer-events="none"/></g><g shape-node=""><path cell-id="50" d="M 325.54 525.62 L 328.45 549.46 C 329 552.97 327.48 556.47 324.57 558.4 C 314.61 560 304.46 560 294.5 558.4 C 291.59 556.47 290.06 552.97 290.62 549.46 L 293.53 525.62 C 294.09 522.98 296.86 520.95 300.32 520.65 L 318.75 520.65 C 322.2 520.95 324.98 522.98 325.54 525.62 Z M 299.52 520.65 L 294.54 514.36 M 305.06 520.65 L 303.4 513.46 M 311.71 520.65 L 313.92 513.46 M 317.24 520.65 L 322.78 514.36 M 324.44 514.69 C 314.19 513.06 303.69 513.06 293.43 514.69 L 289 510.72 C 302.12 508.01 315.76 508.01 328.87 510.72 Z" fill="#ffffff" stroke="#000000" stroke-linejoin="round" stroke-miterlimit="10" transform="rotate(225,309,534)" pointer-events="none"/></g><g shape-node=""><path cell-id="51" d="M 387.54 463.62 L 390.45 487.46 C 391 490.97 389.48 494.47 386.57 496.4 C 376.61 498 366.46 498 356.5 496.4 C 353.59 494.47 352.06 490.97 352.62 487.46 L 355.53 463.62 C 356.09 460.98 358.86 458.95 362.32 458.65 L 380.75 458.65 C 384.2 458.95 386.98 460.98 387.54 463.62 Z M 361.52 458.65 L 356.54 452.36 M 367.06 458.65 L 365.4 451.46 M 373.71 458.65 L 375.92 451.46 M 379.24 458.65 L 384.78 452.36 M 386.44 452.69 C 376.19 451.06 365.69 451.06 355.43 452.69 L 351 448.72 C 364.12 446.01 377.76 446.01 390.87 448.72 Z" fill="#ffffff" stroke="#000000" stroke-linejoin="round" stroke-miterlimit="10" transform="rotate(45,371,472)" pointer-events="none"/></g><g shape-node=""><rect cell-id="52" x="290" y="453" width="100" height="100" fill="#ffffff" stroke="#000000" transform="rotate(-45,340,503)" pointer-events="none"/></g><g shape-node=""><rect cell-id="84" x="831" y="747" width="160" height="5" fill="#ffffff" stroke="#000000" transform="translate(0,789.5)scale(1,-1)translate(0,-789.5)rotate(-180,911,789.5)" pointer-events="none"/><path cell-id="84" d="M 911 747 L 911 752 M 911 752 C 911 796.18 875.18 832 831 832 L 831 752 M 911 752 C 911 796.18 946.82 832 991 832 L 991 752" fill="none" stroke="#000000" stroke-miterlimit="10" transform="translate(0,789.5)scale(1,-1)translate(0,-789.5)rotate(-180,911,789.5)" pointer-events="none"/></g><g shape-node=""><path cell-id="86" d="M 545.54 463.62 L 548.45 487.46 C 549 490.97 547.48 494.47 544.57 496.4 C 534.61 498 524.46 498 514.5 496.4 C 511.59 494.47 510.06 490.97 510.62 487.46 L 513.53 463.62 C 514.09 460.98 516.86 458.95 520.32 458.65 L 538.75 458.65 C 542.2 458.95 544.98 460.98 545.54 463.62 Z M 519.52 458.65 L 514.54 452.36 M 525.06 458.65 L 523.4 451.46 M 531.71 458.65 L 533.92 451.46 M 537.24 458.65 L 542.78 452.36 M 544.44 452.69 C 534.19 451.06 523.69 451.06 513.43 452.69 L 509 448.72 C 522.12 446.01 535.76 446.01 548.87 448.72 Z" fill="#ffffff" stroke="#000000" stroke-linejoin="round" stroke-miterlimit="10" transform="rotate(-45,529,472)" pointer-events="none"/></g><g shape-node=""><path cell-id="87" d="M 607.54 525.62 L 610.45 549.46 C 611 552.97 609.48 556.47 606.57 558.4 C 596.61 560 586.46 560 576.5 558.4 C 573.59 556.47 572.06 552.97 572.62 549.46 L 575.53 525.62 C 576.09 522.98 578.86 520.95 582.32 520.65 L 600.75 520.65 C 604.2 520.95 606.98 522.98 607.54 525.62 Z M 581.52 520.65 L 576.54 514.36 M 587.06 520.65 L 585.4 513.46 M 593.71 520.65 L 595.92 513.46 M 599.24 520.65 L 604.78 514.36 M 606.44 514.69 C 596.19 513.06 585.69 513.06 575.43 514.69 L 571 510.72 C 584.12 508.01 597.76 508.01 610.87 510.72 Z" fill="#ffffff" stroke="#000000" stroke-linejoin="round" stroke-miterlimit="10" transform="rotate(135,591,534)" pointer-events="none"/></g><g shape-node=""><path cell-id="88" d="M 545.54 525.62 L 548.45 549.46 C 549 552.97 547.48 556.47 544.57 558.4 C 534.61 560 524.46 560 514.5 558.4 C 511.59 556.47 510.06 552.97 510.62 549.46 L 513.53 525.62 C 514.09 522.98 516.86 520.95 520.32 520.65 L 538.75 520.65 C 542.2 520.95 544.98 522.98 545.54 525.62 Z M 519.52 520.65 L 514.54 514.36 M 525.06 520.65 L 523.4 513.46 M 531.71 520.65 L 533.92 513.46 M 537.24 520.65 L 542.78 514.36 M 544.44 514.69 C 534.19 513.06 523.69 513.06 513.43 514.69 L 509 510.72 C 522.12 508.01 535.76 508.01 548.87 510.72 Z" fill="#ffffff" stroke="#000000" stroke-linejoin="round" stroke-miterlimit="10" transform="rotate(225,529,534)" pointer-events="none"/></g><g shape-node=""><path cell-id="89" d="M 607.54 463.62 L 610.45 487.46 C 611 490.97 609.48 494.47 606.57 496.4 C 596.61 498 586.46 498 576.5 496.4 C 573.59 494.47 572.06 490.97 572.62 487.46 L 575.53 463.62 C 576.09 460.98 578.86 458.95 582.32 458.65 L 600.75 458.65 C 604.2 458.95 606.98 460.98 607.54 463.62 Z M 581.52 458.65 L 576.54 452.36 M 587.06 458.65 L 585.4 451.46 M 593.71 458.65 L 595.92 451.46 M 599.24 458.65 L 604.78 452.36 M 606.44 452.69 C 596.19 451.06 585.69 451.06 575.43 452.69 L 571 448.72 C 584.12 446.01 597.76 446.01 610.87 448.72 Z" fill="#ffffff" stroke="#000000" stroke-linejoin="round" stroke-miterlimit="10" transform="rotate(45,591,472)" pointer-events="none"/></g><g shape-node=""><rect cell-id="90" x="510" y="453" width="100" height="100" fill="#ffffff" stroke="#000000" transform="rotate(-45,560,503)" pointer-events="none"/></g><g shape-node=""><path cell-id="92" d="M 760.54 469.62 L 763.45 493.46 C 764 496.97 762.48 500.47 759.57 502.4 C 749.61 504 739.46 504 729.5 502.4 C 726.59 500.47 725.06 496.97 725.62 493.46 L 728.53 469.62 C 729.09 466.98 731.86 464.95 735.32 464.65 L 753.75 464.65 C 757.2 464.95 759.98 466.98 760.54 469.62 Z M 734.52 464.65 L 729.54 458.36 M 740.06 464.65 L 738.4 457.46 M 746.71 464.65 L 748.92 457.46 M 752.24 464.65 L 757.78 458.36 M 759.44 458.69 C 749.19 457.06 738.69 457.06 728.43 458.69 L 724 454.72 C 737.12 452.01 750.76 452.01 763.87 454.72 Z" fill="#ffffff" stroke="#000000" stroke-linejoin="round" stroke-miterlimit="10" transform="rotate(-45,744,478)" pointer-events="none"/></g><g shape-node=""><path cell-id="93" d="M 822.54 531.62 L 825.45 555.46 C 826 558.97 824.48 562.47 821.57 564.4 C 811.61 566 801.46 566 791.5 564.4 C 788.59 562.47 787.06 558.97 787.62 555.46 L 790.53 531.62 C 791.09 528.98 793.86 526.95 797.32 526.65 L 815.75 526.65 C 819.2 526.95 821.98 528.98 822.54 531.62 Z M 796.52 526.65 L 791.54 520.36 M 802.06 526.65 L 800.4 519.46 M 808.71 526.65 L 810.92 519.46 M 814.24 526.65 L 819.78 520.36 M 821.44 520.69 C 811.19 519.06 800.69 519.06 790.43 520.69 L 786 516.72 C 799.12 514.01 812.76 514.01 825.87 516.72 Z" fill="#ffffff" stroke="#000000" stroke-linejoin="round" stroke-miterlimit="10" transform="rotate(135,806,540)" pointer-events="none"/></g><g shape-node=""><path cell-id="94" d="M 760.54 531.62 L 763.45 555.46 C 764 558.97 762.48 562.47 759.57 564.4 C 749.61 566 739.46 566 729.5 564.4 C 726.59 562.47 725.06 558.97 725.62 555.46 L 728.53 531.62 C 729.09 528.98 731.86 526.95 735.32 526.65 L 753.75 526.65 C 757.2 526.95 759.98 528.98 760.54 531.62 Z M 734.52 526.65 L 729.54 520.36 M 740.06 526.65 L 738.4 519.46 M 746.71 526.65 L 748.92 519.46 M 752.24 526.65 L 757.78 520.36 M 759.44 520.69 C 749.19 519.06 738.69 519.06 728.43 520.69 L 724 516.72 C 737.12 514.01 750.76 514.01 763.87 516.72 Z" fill="#ffffff" stroke="#000000" stroke-linejoin="round" stroke-miterlimit="10" transform="rotate(225,744,540)" pointer-events="none"/></g><g shape-node=""><path cell-id="95" d="M 822.54 469.62 L 825.45 493.46 C 826 496.97 824.48 500.47 821.57 502.4 C 811.61 504 801.46 504 791.5 502.4 C 788.59 500.47 787.06 496.97 787.62 493.46 L 790.53 469.62 C 791.09 466.98 793.86 464.95 797.32 464.65 L 815.75 464.65 C 819.2 464.95 821.98 466.98 822.54 469.62 Z M 796.52 464.65 L 791.54 458.36 M 802.06 464.65 L 800.4 457.46 M 808.71 464.65 L 810.92 457.46 M 814.24 464.65 L 819.78 458.36 M 821.44 458.69 C 811.19 457.06 800.69 457.06 790.43 458.69 L 786 454.72 C 799.12 452.01 812.76 452.01 825.87 454.72 Z" fill="#ffffff" stroke="#000000" stroke-linejoin="round" stroke-miterlimit="10" transform="rotate(45,806,478)" pointer-events="none"/></g><g shape-node=""><rect cell-id="96" x="725" y="459" width="100" height="100" fill="#ffffff" stroke="#000000" transform="rotate(-45,775,509)" pointer-events="none"/></g><g shape-node=""><path cell-id="98" d="M 957.54 469.62 L 960.45 493.46 C 961 496.97 959.48 500.47 956.57 502.4 C 946.61 504 936.46 504 926.5 502.4 C 923.59 500.47 922.06 496.97 922.62 493.46 L 925.53 469.62 C 926.09 466.98 928.86 464.95 932.32 464.65 L 950.75 464.65 C 954.2 464.95 956.98 466.98 957.54 469.62 Z M 931.52 464.65 L 926.54 458.36 M 937.06 464.65 L 935.4 457.46 M 943.71 464.65 L 945.92 457.46 M 949.24 464.65 L 954.78 458.36 M 956.44 458.69 C 946.19 457.06 935.69 457.06 925.43 458.69 L 921 454.72 C 934.12 452.01 947.76 452.01 960.87 454.72 Z" fill="#ffffff" stroke="#000000" stroke-linejoin="round" stroke-miterlimit="10" transform="rotate(-45,941,478)" pointer-events="none"/></g><g shape-node=""><path cell-id="99" d="M 1019.54 531.62 L 1022.45 555.46 C 1023 558.97 1021.48 562.47 1018.57 564.4 C 1008.61 566 998.46 566 988.5 564.4 C 985.59 562.47 984.06 558.97 984.62 555.46 L 987.53 531.62 C 988.09 528.98 990.86 526.95 994.32 526.65 L 1012.75 526.65 C 1016.2 526.95 1018.98 528.98 1019.54 531.62 Z M 993.52 526.65 L 988.54 520.36 M 999.06 526.65 L 997.4 519.46 M 1005.71 526.65 L 1007.92 519.46 M 1011.24 526.65 L 1016.78 520.36 M 1018.44 520.69 C 1008.19 519.06 997.69 519.06 987.43 520.69 L 983 516.72 C 996.12 514.01 1009.76 514.01 1022.87 516.72 Z" fill="#ffffff" stroke="#000000" stroke-linejoin="round" stroke-miterlimit="10" transform="rotate(135,1003,540)" pointer-events="none"/></g><g shape-node=""><path cell-id="100" d="M 957.54 531.62 L 960.45 555.46 C 961 558.97 959.48 562.47 956.57 564.4 C 946.61 566 936.46 566 926.5 564.4 C 923.59 562.47 922.06 558.97 922.62 555.46 L 925.53 531.62 C 926.09 528.98 928.86 526.95 932.32 526.65 L 950.75 526.65 C 954.2 526.95 956.98 528.98 957.54 531.62 Z M 931.52 526.65 L 926.54 520.36 M 937.06 526.65 L 935.4 519.46 M 943.71 526.65 L 945.92 519.46 M 949.24 526.65 L 954.78 520.36 M 956.44 520.69 C 946.19 519.06 935.69 519.06 925.43 520.69 L 921 516.72 C 934.12 514.01 947.76 514.01 960.87 516.72 Z" fill="#ffffff" stroke="#000000" stroke-linejoin="round" stroke-miterlimit="10" transform="rotate(225,941,540)" pointer-events="none"/></g><g shape-node=""><path cell-id="101" d="M 1019.54 469.62 L 1022.45 493.46 C 1023 496.97 1021.48 500.47 1018.57 502.4 C 1008.61 504 998.46 504 988.5 502.4 C 985.59 500.47 984.06 496.97 984.62 493.46 L 987.53 469.62 C 988.09 466.98 990.86 464.95 994.32 464.65 L 1012.75 464.65 C 1016.2 464.95 1018.98 466.98 1019.54 469.62 Z M 993.52 464.65 L 988.54 458.36 M 999.06 464.65 L 997.4 457.46 M 1005.71 464.65 L 1007.92 457.46 M 1011.24 464.65 L 1016.78 458.36 M 1018.44 458.69 C 1008.19 457.06 997.69 457.06 987.43 458.69 L 983 454.72 C 996.12 452.01 1009.76 452.01 1022.87 454.72 Z" fill="#ffffff" stroke="#000000" stroke-linejoin="round" stroke-miterlimit="10" transform="rotate(45,1003,478)" pointer-events="none"/></g><g shape-node=""><rect cell-id="102" x="922" y="459" width="100" height="100" fill="#ffffff" stroke="#000000" transform="rotate(-45,972,509)" pointer-events="none"/></g><g shape-node=""><path cell-id="107" d="M 1319.54 284.62 L 1322.45 308.46 C 1323 311.97 1321.48 315.47 1318.57 317.4 C 1308.61 319 1298.46 319 1288.5 317.4 C 1285.59 315.47 1284.06 311.97 1284.62 308.46 L 1287.53 284.62 C 1288.09 281.98 1290.86 279.95 1294.32 279.65 L 1312.75 279.65 C 1316.2 279.95 1318.98 281.98 1319.54 284.62 Z M 1293.52 279.65 L 1288.54 273.36 M 1299.06 279.65 L 1297.4 272.46 M 1305.71 279.65 L 1307.92 272.46 M 1311.24 279.65 L 1316.78 273.36 M 1318.44 273.69 C 1308.19 272.06 1297.69 272.06 1287.43 273.69 L 1283 269.72 C 1296.12 267.01 1309.76 267.01 1322.87 269.72 Z" fill="#ffffff" stroke="#000000" stroke-linejoin="round" stroke-miterlimit="10" pointer-events="none"/></g><g shape-node=""><path cell-id="108" d="M 1319.54 372.62 L 1322.45 396.46 C 1323 399.97 1321.48 403.47 1318.57 405.4 C 1308.61 407 1298.46 407 1288.5 405.4 C 1285.59 403.47 1284.06 399.97 1284.62 396.46 L 1287.53 372.62 C 1288.09 369.98 1290.86 367.95 1294.32 367.65 L 1312.75 367.65 C 1316.2 367.95 1318.98 369.98 1319.54 372.62 Z M 1293.52 367.65 L 1288.54 361.36 M 1299.06 367.65 L 1297.4 360.46 M 1305.71 367.65 L 1307.92 360.46 M 1311.24 367.65 L 1316.78 361.36 M 1318.44 361.69 C 1308.19 360.06 1297.69 360.06 1287.43 361.69 L 1283 357.72 C 1296.12 355.01 1309.76 355.01 1322.87 357.72 Z" fill="#ffffff" stroke="#000000" stroke-linejoin="round" stroke-miterlimit="10" transform="rotate(180,1303,381)" pointer-events="none"/></g><g shape-node=""><path cell-id="109" d="M 1275.54 328.62 L 1278.45 352.46 C 1279 355.97 1277.48 359.47 1274.57 361.4 C 1264.61 363 1254.46 363 1244.5 361.4 C 1241.59 359.47 1240.06 355.97 1240.62 352.46 L 1243.53 328.62 C 1244.09 325.98 1246.86 323.95 1250.32 323.65 L 1268.75 323.65 C 1272.2 323.95 1274.98 325.98 1275.54 328.62 Z M 1249.52 323.65 L 1244.54 317.36 M 1255.06 323.65 L 1253.4 316.46 M 1261.71 323.65 L 1263.92 316.46 M 1267.24 323.65 L 1272.78 317.36 M 1274.44 317.69 C 1264.19 316.06 1253.69 316.06 1243.43 317.69 L 1239 313.72 C 1252.12 311.01 1265.76 311.01 1278.87 313.72 Z" fill="#ffffff" stroke="#000000" stroke-linejoin="round" stroke-miterlimit="10" transform="rotate(270,1259,337)" pointer-events="none"/></g><g shape-node=""><rect cell-id="111" x="1253" y="287" width="100" height="100" fill="#ffffff" stroke="#000000" pointer-events="none"/></g><g shape-node=""><path cell-id="114" d="M 1319.54 84.62 L 1322.45 108.46 C 1323 111.97 1321.48 115.47 1318.57 117.4 C 1308.61 119 1298.46 119 1288.5 117.4 C 1285.59 115.47 1284.06 111.97 1284.62 108.46 L 1287.53 84.62 C 1288.09 81.98 1290.86 79.95 1294.32 79.65 L 1312.75 79.65 C 1316.2 79.95 1318.98 81.98 1319.54 84.62 Z M 1293.52 79.65 L 1288.54 73.36 M 1299.06 79.65 L 1297.4 72.46 M 1305.71 79.65 L 1307.92 72.46 M 1311.24 79.65 L 1316.78 73.36 M 1318.44 73.69 C 1308.19 72.06 1297.69 72.06 1287.43 73.69 L 1283 69.72 C 1296.12 67.01 1309.76 67.01 1322.87 69.72 Z" fill="#ffffff" stroke="#000000" stroke-linejoin="round" stroke-miterlimit="10" pointer-events="none"/></g><g shape-node=""><path cell-id="115" d="M 1319.54 172.62 L 1322.45 196.46 C 1323 199.97 1321.48 203.47 1318.57 205.4 C 1308.61 207 1298.46 207 1288.5 205.4 C 1285.59 203.47 1284.06 199.97 1284.62 196.46 L 1287.53 172.62 C 1288.09 169.98 1290.86 167.95 1294.32 167.65 L 1312.75 167.65 C 1316.2 167.95 1318.98 169.98 1319.54 172.62 Z M 1293.52 167.65 L 1288.54 161.36 M 1299.06 167.65 L 1297.4 160.46 M 1305.71 167.65 L 1307.92 160.46 M 1311.24 167.65 L 1316.78 161.36 M 1318.44 161.69 C 1308.19 160.06 1297.69 160.06 1287.43 161.69 L 1283 157.72 C 1296.12 155.01 1309.76 155.01 1322.87 157.72 Z" fill="#ffffff" stroke="#000000" stroke-linejoin="round" stroke-miterlimit="10" transform="rotate(180,1303,181)" pointer-events="none"/></g><g shape-node=""><path cell-id="116" d="M 1275.54 128.62 L 1278.45 152.46 C 1279 155.97 1277.48 159.47 1274.57 161.4 C 1264.61 163 1254.46 163 1244.5 161.4 C 1241.59 159.47 1240.06 155.97 1240.62 152.46 L 1243.53 128.62 C 1244.09 125.98 1246.86 123.95 1250.32 123.65 L 1268.75 123.65 C 1272.2 123.95 1274.98 125.98 1275.54 128.62 Z M 1249.52 123.65 L 1244.54 117.36 M 1255.06 123.65 L 1253.4 116.46 M 1261.71 123.65 L 1263.92 116.46 M 1267.24 123.65 L 1272.78 117.36 M 1274.44 117.69 C 1264.19 116.06 1253.69 116.06 1243.43 117.69 L 1239 113.72 C 1252.12 111.01 1265.76 111.01 1278.87 113.72 Z" fill="#ffffff" stroke="#000000" stroke-linejoin="round" stroke-miterlimit="10" transform="rotate(270,1259,137)" pointer-events="none"/></g><g shape-node=""><rect cell-id="117" x="1253" y="87" width="100" height="100" fill="#ffffff" stroke="#000000" pointer-events="none"/></g><g shape-node=""><path cell-id="119" d="M 1319.54 481.62 L 1322.45 505.46 C 1323 508.97 1321.48 512.47 1318.57 514.4 C 1308.61 516 1298.46 516 1288.5 514.4 C 1285.59 512.47 1284.06 508.97 1284.62 505.46 L 1287.53 481.62 C 1288.09 478.98 1290.86 476.95 1294.32 476.65 L 1312.75 476.65 C 1316.2 476.95 1318.98 478.98 1319.54 481.62 Z M 1293.52 476.65 L 1288.54 470.36 M 1299.06 476.65 L 1297.4 469.46 M 1305.71 476.65 L 1307.92 469.46 M 1311.24 476.65 L 1316.78 470.36 M 1318.44 470.69 C 1308.19 469.06 1297.69 469.06 1287.43 470.69 L 1283 466.72 C 1296.12 464.01 1309.76 464.01 1322.87 466.72 Z" fill="#ffffff" stroke="#000000" stroke-linejoin="round" stroke-miterlimit="10" pointer-events="none"/></g><g shape-node=""><path cell-id="120" d="M 1319.54 569.62 L 1322.45 593.46 C 1323 596.97 1321.48 600.47 1318.57 602.4 C 1308.61 604 1298.46 604 1288.5 602.4 C 1285.59 600.47 1284.06 596.97 1284.62 593.46 L 1287.53 569.62 C 1288.09 566.98 1290.86 564.95 1294.32 564.65 L 1312.75 564.65 C 1316.2 564.95 1318.98 566.98 1319.54 569.62 Z M 1293.52 564.65 L 1288.54 558.36 M 1299.06 564.65 L 1297.4 557.46 M 1305.71 564.65 L 1307.92 557.46 M 1311.24 564.65 L 1316.78 558.36 M 1318.44 558.69 C 1308.19 557.06 1297.69 557.06 1287.43 558.69 L 1283 554.72 C 1296.12 552.01 1309.76 552.01 1322.87 554.72 Z" fill="#ffffff" stroke="#000000" stroke-linejoin="round" stroke-miterlimit="10" transform="rotate(180,1303,578)" pointer-events="none"/></g><g shape-node=""><path cell-id="121" d="M 1275.54 525.62 L 1278.45 549.46 C 1279 552.97 1277.48 556.47 1274.57 558.4 C 1264.61 560 1254.46 560 1244.5 558.4 C 1241.59 556.47 1240.06 552.97 1240.62 549.46 L 1243.53 525.62 C 1244.09 522.98 1246.86 520.95 1250.32 520.65 L 1268.75 520.65 C 1272.2 520.95 1274.98 522.98 1275.54 525.62 Z M 1249.52 520.65 L 1244.54 514.36 M 1255.06 520.65 L 1253.4 513.46 M 1261.71 520.65 L 1263.92 513.46 M 1267.24 520.65 L 1272.78 514.36 M 1274.44 514.69 C 1264.19 513.06 1253.69 513.06 1243.43 514.69 L 1239 510.72 C 1252.12 508.01 1265.76 508.01 1278.87 510.72 Z" fill="#ffffff" stroke="#000000" stroke-linejoin="round" stroke-miterlimit="10" transform="rotate(270,1259,534)" pointer-events="none"/></g><g shape-node=""><rect cell-id="122" x="1253" y="484" width="100" height="100" fill="#ffffff" stroke="#000000" pointer-events="none"/></g><g shape-node=""><path cell-id="124" d="M 1123.54 84.62 L 1126.45 108.46 C 1127 111.97 1125.48 115.47 1122.57 117.4 C 1112.61 119 1102.46 119 1092.5 117.4 C 1089.59 115.47 1088.06 111.97 1088.62 108.46 L 1091.53 84.62 C 1092.09 81.98 1094.86 79.95 1098.32 79.65 L 1116.75 79.65 C 1120.2 79.95 1122.98 81.98 1123.54 84.62 Z M 1097.52 79.65 L 1092.54 73.36 M 1103.06 79.65 L 1101.4 72.46 M 1109.71 79.65 L 1111.92 72.46 M 1115.24 79.65 L 1120.78 73.36 M 1122.44 73.69 C 1112.19 72.06 1101.69 72.06 1091.43 73.69 L 1087 69.72 C 1100.12 67.01 1113.76 67.01 1126.87 69.72 Z" fill="#ffffff" stroke="#000000" stroke-linejoin="round" stroke-miterlimit="10" pointer-events="none"/></g><g shape-node=""><path cell-id="125" d="M 1123.54 172.62 L 1126.45 196.46 C 1127 199.97 1125.48 203.47 1122.57 205.4 C 1112.61 207 1102.46 207 1092.5 205.4 C 1089.59 203.47 1088.06 199.97 1088.62 196.46 L 1091.53 172.62 C 1092.09 169.98 1094.86 167.95 1098.32 167.65 L 1116.75 167.65 C 1120.2 167.95 1122.98 169.98 1123.54 172.62 Z M 1097.52 167.65 L 1092.54 161.36 M 1103.06 167.65 L 1101.4 160.46 M 1109.71 167.65 L 1111.92 160.46 M 1115.24 167.65 L 1120.78 161.36 M 1122.44 161.69 C 1112.19 160.06 1101.69 160.06 1091.43 161.69 L 1087 157.72 C 1100.12 155.01 1113.76 155.01 1126.87 157.72 Z" fill="#ffffff" stroke="#000000" stroke-linejoin="round" stroke-miterlimit="10" transform="rotate(180,1107,181)" pointer-events="none"/></g><g shape-node=""><path cell-id="126" d="M 1079.54 128.62 L 1082.45 152.46 C 1083 155.97 1081.48 159.47 1078.57 161.4 C 1068.61 163 1058.46 163 1048.5 161.4 C 1045.59 159.47 1044.06 155.97 1044.62 152.46 L 1047.53 128.62 C 1048.09 125.98 1050.86 123.95 1054.32 123.65 L 1072.75 123.65 C 1076.2 123.95 1078.98 125.98 1079.54 128.62 Z M 1053.52 123.65 L 1048.54 117.36 M 1059.06 123.65 L 1057.4 116.46 M 1065.71 123.65 L 1067.92 116.46 M 1071.24 123.65 L 1076.78 117.36 M 1078.44 117.69 C 1068.19 116.06 1057.69 116.06 1047.43 117.69 L 1043 113.72 C 1056.12 111.01 1069.76 111.01 1082.87 113.72 Z" fill="#ffffff" stroke="#000000" stroke-linejoin="round" stroke-miterlimit="10" transform="rotate(270,1063,137)" pointer-events="none"/></g><g shape-node=""><rect cell-id="127" x="1057" y="87" width="100" height="100" fill="#ffffff" stroke="#000000" pointer-events="none"/></g><g shape-node=""><path cell-id="134" d="M 1069.54 368.62 L 1072.45 392.46 C 1073 395.97 1071.48 399.47 1068.57 401.4 C 1058.61 403 1048.46 403 1038.5 401.4 C 1035.59 399.47 1034.06 395.97 1034.62 392.46 L 1037.53 368.62 C 1038.09 365.98 1040.86 363.95 1044.32 363.65 L 1062.75 363.65 C 1066.2 363.95 1068.98 365.98 1069.54 368.62 Z M 1043.52 363.65 L 1038.54 357.36 M 1049.06 363.65 L 1047.4 356.46 M 1055.71 363.65 L 1057.92 356.46 M 1061.24 363.65 L 1066.78 357.36 M 1068.44 357.69 C 1058.19 356.06 1047.69 356.06 1037.43 357.69 L 1033 353.72 C 1046.12 351.01 1059.76 351.01 1072.87 353.72 Z" fill="#ffffff" stroke="#000000" stroke-linejoin="round" stroke-miterlimit="10" transform="rotate(180,1053,377)" pointer-events="none"/></g><g shape-node=""><path cell-id="135" d="M 1069.54 280.62 L 1072.45 304.46 C 1073 307.97 1071.48 311.47 1068.57 313.4 C 1058.61 315 1048.46 315 1038.5 313.4 C 1035.59 311.47 1034.06 307.97 1034.62 304.46 L 1037.53 280.62 C 1038.09 277.98 1040.86 275.95 1044.32 275.65 L 1062.75 275.65 C 1066.2 275.95 1068.98 277.98 1069.54 280.62 Z M 1043.52 275.65 L 1038.54 269.36 M 1049.06 275.65 L 1047.4 268.46 M 1055.71 275.65 L 1057.92 268.46 M 1061.24 275.65 L 1066.78 269.36 M 1068.44 269.69 C 1058.19 268.06 1047.69 268.06 1037.43 269.69 L 1033 265.72 C 1046.12 263.01 1059.76 263.01 1072.87 265.72 Z" fill="#ffffff" stroke="#000000" stroke-linejoin="round" stroke-miterlimit="10" transform="rotate(360,1053,289)" pointer-events="none"/></g><g shape-node=""><path cell-id="136" d="M 1113.54 324.62 L 1116.45 348.46 C 1117 351.97 1115.48 355.47 1112.57 357.4 C 1102.61 359 1092.46 359 1082.5 357.4 C 1079.59 355.47 1078.06 351.97 1078.62 348.46 L 1081.53 324.62 C 1082.09 321.98 1084.86 319.95 1088.32 319.65 L 1106.75 319.65 C 1110.2 319.95 1112.98 321.98 1113.54 324.62 Z M 1087.52 319.65 L 1082.54 313.36 M 1093.06 319.65 L 1091.4 312.46 M 1099.71 319.65 L 1101.92 312.46 M 1105.24 319.65 L 1110.78 313.36 M 1112.44 313.69 C 1102.19 312.06 1091.69 312.06 1081.43 313.69 L 1077 309.72 C 1090.12 307.01 1103.76 307.01 1116.87 309.72 Z" fill="#ffffff" stroke="#000000" stroke-linejoin="round" stroke-miterlimit="10" transform="rotate(450,1097,333)" pointer-events="none"/></g><g shape-node=""><rect cell-id="137" x="1003" y="283" width="100" height="100" fill="#ffffff" stroke="#000000" transform="rotate(180,1053,333)" pointer-events="none"/></g><g shape-node=""><path cell-id="139" d="M 139.54 665.62 L 142.45 689.46 C 143 692.97 141.48 696.47 138.57 698.4 C 128.61 700 118.46 700 108.5 698.4 C 105.59 696.47 104.06 692.97 104.62 689.46 L 107.53 665.62 C 108.09 662.98 110.86 660.95 114.32 660.65 L 132.75 660.65 C 136.2 660.95 138.98 662.98 139.54 665.62 Z M 113.52 660.65 L 108.54 654.36 M 119.06 660.65 L 117.4 653.46 M 125.71 660.65 L 127.92 653.46 M 131.24 660.65 L 136.78 654.36 M 138.44 654.69 C 128.19 653.06 117.69 653.06 107.43 654.69 L 103 650.72 C 116.12 648.01 129.76 648.01 142.87 650.72 Z" fill="#ffffff" stroke="#000000" stroke-linejoin="round" stroke-miterlimit="10" pointer-events="none"/></g><g shape-node=""><rect cell-id="141" x="83" y="668" width="80" height="80" fill="#ffffff" stroke="#000000" pointer-events="none"/></g><g shape-node=""><path cell-id="144" d="M 267.54 665.62 L 270.45 689.46 C 271 692.97 269.48 696.47 266.57 698.4 C 256.61 700 246.46 700 236.5 698.4 C 233.59 696.47 232.06 692.97 232.62 689.46 L 235.53 665.62 C 236.09 662.98 238.86 660.95 242.32 660.65 L 260.75 660.65 C 264.2 660.95 266.98 662.98 267.54 665.62 Z M 241.52 660.65 L 236.54 654.36 M 247.06 660.65 L 245.4 653.46 M 253.71 660.65 L 255.92 653.46 M 259.24 660.65 L 264.78 654.36 M 266.44 654.69 C 256.19 653.06 245.69 653.06 235.43 654.69 L 231 650.72 C 244.12 648.01 257.76 648.01 270.87 650.72 Z" fill="#ffffff" stroke="#000000" stroke-linejoin="round" stroke-miterlimit="10" pointer-events="none"/></g><g shape-node=""><rect cell-id="145" x="211" y="668" width="80" height="80" fill="#ffffff" stroke="#000000" pointer-events="none"/></g><g shape-node=""><path cell-id="147" d="M 393.04 665.62 L 395.95 689.46 C 396.5 692.97 394.98 696.47 392.07 698.4 C 382.11 700 371.96 700 362 698.4 C 359.09 696.47 357.56 692.97 358.12 689.46 L 361.03 665.62 C 361.59 662.98 364.36 660.95 367.82 660.65 L 386.25 660.65 C 389.7 660.95 392.48 662.98 393.04 665.62 Z M 367.02 660.65 L 362.04 654.36 M 372.56 660.65 L 370.9 653.46 M 379.21 660.65 L 381.42 653.46 M 384.74 660.65 L 390.28 654.36 M 391.94 654.69 C 381.69 653.06 371.19 653.06 360.93 654.69 L 356.5 650.72 C 369.62 648.01 383.26 648.01 396.37 650.72 Z" fill="#ffffff" stroke="#000000" stroke-linejoin="round" stroke-miterlimit="10" pointer-events="none"/></g><g shape-node=""><rect cell-id="148" x="336.5" y="668" width="80" height="80" fill="#ffffff" stroke="#000000" pointer-events="none"/></g><g shape-node=""><path cell-id="150" d="M 520.04 665.62 L 522.95 689.46 C 523.5 692.97 521.98 696.47 519.07 698.4 C 509.11 700 498.96 700 489 698.4 C 486.09 696.47 484.56 692.97 485.12 689.46 L 488.03 665.62 C 488.59 662.98 491.36 660.95 494.82 660.65 L 513.25 660.65 C 516.7 660.95 519.48 662.98 520.04 665.62 Z M 494.02 660.65 L 489.04 654.36 M 499.56 660.65 L 497.9 653.46 M 506.21 660.65 L 508.42 653.46 M 511.74 660.65 L 517.28 654.36 M 518.94 654.69 C 508.69 653.06 498.19 653.06 487.93 654.69 L 483.5 650.72 C 496.62 648.01 510.26 648.01 523.37 650.72 Z" fill="#ffffff" stroke="#000000" stroke-linejoin="round" stroke-miterlimit="10" pointer-events="none"/></g><g shape-node=""><rect cell-id="151" x="463.5" y="668" width="80" height="80" fill="#ffffff" stroke="#000000" pointer-events="none"/></g><g shape-node=""><path cell-id="153" d="M 648.04 665.62 L 650.95 689.46 C 651.5 692.97 649.98 696.47 647.07 698.4 C 637.11 700 626.96 700 617 698.4 C 614.09 696.47 612.56 692.97 613.12 689.46 L 616.03 665.62 C 616.59 662.98 619.36 660.95 622.82 660.65 L 641.25 660.65 C 644.7 660.95 647.48 662.98 648.04 665.62 Z M 622.02 660.65 L 617.04 654.36 M 627.56 660.65 L 625.9 653.46 M 634.21 660.65 L 636.42 653.46 M 639.74 660.65 L 645.28 654.36 M 646.94 654.69 C 636.69 653.06 626.19 653.06 615.93 654.69 L 611.5 650.72 C 624.62 648.01 638.26 648.01 651.37 650.72 Z" fill="#ffffff" stroke="#000000" stroke-linejoin="round" stroke-miterlimit="10" pointer-events="none"/></g><g shape-node=""><rect cell-id="154" x="591.5" y="668" width="80" height="80" fill="#ffffff" stroke="#000000" pointer-events="none"/></g><g shape-node=""><path cell-id="156" d="M 773.54 665.62 L 776.45 689.46 C 777 692.97 775.48 696.47 772.57 698.4 C 762.61 700 752.46 700 742.5 698.4 C 739.59 696.47 738.06 692.97 738.62 689.46 L 741.53 665.62 C 742.09 662.98 744.86 660.95 748.32 660.65 L 766.75 660.65 C 770.2 660.95 772.98 662.98 773.54 665.62 Z M 747.52 660.65 L 742.54 654.36 M 753.06 660.65 L 751.4 653.46 M 759.71 660.65 L 761.92 653.46 M 765.24 660.65 L 770.78 654.36 M 772.44 654.69 C 762.19 653.06 751.69 653.06 741.43 654.69 L 737 650.72 C 750.12 648.01 763.76 648.01 776.87 650.72 Z" fill="#ffffff" stroke="#000000" stroke-linejoin="round" stroke-miterlimit="10" pointer-events="none"/></g><g shape-node=""><rect cell-id="157" x="717" y="668" width="80" height="80" fill="#ffffff" stroke="#000000" pointer-events="none"/></g></g><g fill="#787878" font-family="Arial,Helvetica" pointer-events="none" font-size="12px"><text pointer-events="none" x="6" y="15">Visual Paradigm Online Free Edition</text></g><g fill="#787878" font-family="Arial,Helvetica" pointer-events="none" text-anchor="end" font-size="12px"><text pointer-events="none" x="1358" y="827">Visual Paradigm Online Free Edition</text></g></svg>